# xmcd
#
# Track frame offsets:
#	150
#	26005
#	57190
#	79405
#	116680
#	149402
#	167817
#	183270
#	200107
#
# Disc length: 3036 seconds
#
# Revision: 1
# Processed by: cddbd v1.4PL0 Copyright (c) Steve Scherf et al.
# Submitted via: audiograbber 1.81.03
#
DISCID=820bda09
DTITLE=Chicago Beau - Last Of The Sa Boom Boom Gypsies CD2
DYEAR=1900
DGENRE=Blues
TTITLE0=Shine
TTITLE1=I Am A Black Snake
TTITLE2=Black Names Ringing
TTITLE3=My Ancestors
TTITLE4=Don't Run Me Out Of Your Life
TTITLE5=Please Be Careful How You Vote
TTITLE6=Hangover
TTITLE7=One More Time
TTITLE8=Wine Time After Hours
EXTD=
EXTT0=
EXTT1=
EXTT2=
EXTT3=
EXTT4=
EXTT5=
EXTT6=
EXTT7=
EXTT8=
PLAYORDER=
